<?xml version="1.0" encoding="utf-8"?>
<!-- Generator: Adobe Illustrator 19.2.1, SVG Export Plug-In . SVG Version: 6.00 Build 0)  -->
<svg version="1.1" id="Layer_1" xmlns="http://www.w3.org/2000/svg" xmlns:xlink="http://www.w3.org/1999/xlink" x="0px" y="0px"
	 viewBox="0 0 351.3 138" style="enable-background:new 0 0 351.3 138;" xml:space="preserve">
<style type="text/css">
	.st0{fill:#E6183F;}
	.st1{fill:#FFFFFF;}
</style>
<path class="st0" d="M175.3,65.1c-0.6,0-0.9-0.3-1-0.9l-1.8-9.2h-11.3l-1.7,9.2c-0.1,0.6-0.4,0.9-1,0.9h-6.8c-0.7,0-1-0.4-0.8-1.1
	l10.5-48.7c0.1-0.6,0.5-0.9,1.1-0.9h8.8c0.6,0,1,0.3,1.1,0.9l10.5,48.7c0.1,0.7-0.1,1.1-0.9,1.1H175.3z M166.9,25.6l-4,22.1h8.1
	L166.9,25.6z"/>
<path class="st0" d="M205.3,15.5c0-0.6,0.4-1,1-1h6.5c0.8,0,1.1,0.4,1.1,1v48.6c0,0.6-0.3,1-1.1,1h-6.5c-0.6,0-1-0.4-1-1V44h-8.1
	v20.1c0,0.6-0.4,1-1,1h-6.5c-0.8,0-1.1-0.4-1.1-1V15.5c0-0.6,0.3-1,1.1-1h6.5c0.6,0,1,0.4,1,1v20.1h8.1V15.5z"/>
<path class="st0" d="M315.3,74.2c0-0.7,0.4-1.1,1.1-1.1h6.9c0.8,0,1.1,0.4,1.1,1.1v51.3c0,0.7-0.3,1.1-1.1,1.1h-6.9
	c-0.7,0-1.1-0.4-1.1-1.1v-21.2h-8.5v21.2c0,0.7-0.4,1.1-1.1,1.1h-6.9c-0.8,0-1.1-0.4-1.1-1.1V74.2c0-0.7,0.3-1.1,1.1-1.1h6.9
	c0.7,0,1.1,0.4,1.1,1.1v21.2h8.5V74.2z"/>
<path class="st0" d="M227.9,14.5c0.6,0,1,0.4,1,1v48.6c0,0.6-0.4,1-1,1h-6.6c-0.7,0-1-0.4-1-1V15.5c0-0.6,0.3-1,1-1H227.9z"/>
<path class="st0" d="M277,14.5c0.6,0,1,0.4,1,1v48.6c0,0.6-0.4,1-1,1h-6.3c-0.6,0-1-0.3-1.1-0.8l-9.7-27h-0.3v26.8c0,0.6-0.3,1-1,1
	H252c-0.6,0-1-0.4-1-1V15.5c0-0.6,0.4-1,1-1h6.3c0.6,0,0.9,0.3,1.1,0.8l9.6,26.9h0.4V15.5c0-0.6,0.3-1,1-1H277z"/>
<path class="st0" d="M284.4,23.6c0-5.9,3.2-9.1,9.1-9.1h7.1c5.9,0,9.1,3.2,9.1,9.1V56c0,5.9-3.2,9.1-9.1,9.1h-7.1
	c-5.9,0-9.1-3.2-9.1-9.1V23.6z M299,57c1.6,0,2.5-0.8,2.5-2.5V25.2c0-1.6-0.9-2.5-2.5-2.5h-3.7c-1.6,0-2.5,0.9-2.5,2.5v29.2
	c0,1.7,0.9,2.5,2.5,2.5H299z"/>
<path class="st0" d="M332.3,14.5c5.9,0,9.1,3.2,9.1,9.1v6.7c0,0.6-0.3,1-1,1h-6.6c-0.6,0-1-0.4-1-1v-4.9c0-1.6-0.8-2.5-2.5-2.5h-3
	c-1.6,0-2.5,0.9-2.5,2.5v8.7l15.1,4.9c1.1,0.4,1.6,1.1,1.6,2.3V56c0,5.9-3.2,9.1-9.1,9.1h-7.1c-5.9,0-9.1-3.2-9.1-9.1v-6.6
	c0-0.7,0.4-1,1-1h6.6c0.7,0,1,0.3,1,1v4.9c0,1.7,0.9,2.5,2.5,2.5h3c1.6,0,2.5-0.8,2.5-2.5v-8.4l-15-4.9c-1.1-0.4-1.7-1.1-1.7-2.3
	V23.6c0-5.9,3.2-9.1,9.1-9.1H332.3z"/>
<path class="st0" d="M181.8,73.1c1,0,1.4,0.5,1.2,1.5l-11.3,50.7c-0.2,0.8-0.7,1.2-1.5,1.2h-6.7c-0.8,0-1.3-0.4-1.5-1.2l-11.2-50.7
	c-0.2-0.9,0.2-1.5,1.2-1.5h6.3c0.8,0,1.3,0.4,1.5,1.2l7,35.8l7.1-35.8c0.2-0.8,0.7-1.2,1.5-1.2H181.8z"/>
<path class="st0" d="M215.1,80.9c0,0.7-0.3,1.1-1.1,1.1h-16.7v13.3h12.7c0.7,0,1.1,0.4,1.1,1.1v6.6c0,0.7-0.4,1.1-1.1,1.1h-12.7
	v13.5H214c0.8,0,1.1,0.3,1.1,1.1v6.7c0,0.7-0.3,1.1-1.1,1.1h-24.6c-0.6,0-1-0.4-1-1.1V74.2c0-0.7,0.4-1.1,1-1.1H214
	c0.8,0,1.1,0.4,1.1,1.1V80.9z"/>
<path class="st0" d="M257.8,73.1c0.9,0,1.3,0.5,1.3,1.3v50.7c0,0.9-0.5,1.3-1.3,1.3h-6.2c-0.9,0-1.3-0.5-1.3-1.3v-30h-0.5l-6.6,30.2
	c-0.2,0.8-0.7,1.2-1.5,1.2h-3.3c-0.8,0-1.3-0.4-1.5-1.2l-6.6-30.2h-0.5v30c0,0.9-0.5,1.3-1.3,1.3h-6.1c-0.9,0-1.3-0.5-1.3-1.3V74.4
	c0-0.9,0.5-1.3,1.3-1.3h8.8c0.8,0,1.3,0.4,1.5,1.2l7.4,33.2l7.4-33.2c0.2-0.8,0.7-1.2,1.5-1.2H257.8z"/>
<path class="st0" d="M265.8,82.7c0-6.3,3.3-9.6,9.6-9.6h7.5c6.3,0,9.6,3.3,9.6,9.6v34.2c0,6.3-3.3,9.6-9.6,9.6h-7.5
	c-6.3,0-9.6-3.3-9.6-9.6V82.7z M281.3,117.9c1.7,0,2.7-0.9,2.7-2.7V84.4c0-1.7-0.9-2.7-2.7-2.7h-3.9c-1.7,0-2.7,0.9-2.7,2.7v30.8
	c0,1.8,0.9,2.7,2.7,2.7H281.3z"/>
<path class="st0" d="M340.6,73.1c0.7,0,1.1,0.4,1.1,1.1l-0.5,36.4c0,0.7-0.4,1.1-1.1,1.1h-6.3c-0.7,0-1.1-0.4-1.1-1.1l-0.5-36.4
	c0-0.7,0.3-1.1,1.1-1.1H340.6z M332.6,119c0-0.9,0.5-1.3,1.3-1.3h6.1c0.9,0,1.3,0.5,1.3,1.3v6.1c0,0.9-0.5,1.3-1.3,1.3h-6.1
	c-0.9,0-1.3-0.5-1.3-1.3V119z"/>
<path class="st0" d="M125.4,131.9H18.1c-5,0-9.1-4.1-9.1-9.1V15.5c0-5,4.1-9.1,9.1-9.1h107.3c5,0,9.1,4.1,9.1,9.1v107.3
	C134.5,127.8,130.4,131.9,125.4,131.9z"/>
<g>
	<path class="st1" d="M117.8,29c1.6,0,2.3,0.8,2,2.2l-18.3,76.3c-0.3,1.2-1.1,1.8-2.4,1.8H88.2c-1.3,0-2.1-0.6-2.4-1.8L67.6,31.2
		c-0.3-1.4,0.3-2.2,2-2.2h10.3c1.3,0,2.1,0.6,2.4,1.8l11.4,53.8l11.5-53.8c0.3-1.2,1.1-1.8,2.4-1.8H117.8z"/>
	<path class="st1" d="M25.6,109.3c-1.6,0-2.3-0.8-2-2.2L42,30.8c0.3-1.2,1.1-1.8,2.4-1.8h10.8c1.3,0,2.1,0.6,2.4,1.8l18.2,76.3
		c0.3,1.4-0.3,2.2-2,2.2H63.5c-1.3,0-2.1-0.6-2.4-1.8L49.8,53.7l-11.5,53.8c-0.3,1.2-1.1,1.8-2.4,1.8H25.6z"/>
</g>
</svg>
